<svg xmlns="http://www.w3.org/2000/svg" viewBox="0 0 1600 1000" width="1600" height="1000" preserveAspectRatio="xMidYMid slice">

<defs>
  <linearGradient id="s" x1="0" y1="0" x2="0" y2="1"><stop offset="0" stop-color="#1a1611"/><stop offset="1" stop-color="#241d15"/></linearGradient>
  <radialGradient id="g"><stop offset="0" stop-color="#f0b45e" stop-opacity="0.75"/><stop offset="1" stop-color="#f0b45e" stop-opacity="0"/></radialGradient>
</defs>
<rect width="1600" height="1000" fill="url(#s)"/>
<g fill="#2a2118" stroke="#3a2e21" stroke-width="3">
  <rect x="0" y="300" width="196" height="700"/><rect x="200" y="300" width="196" height="700"/><rect x="400" y="300" width="196" height="700"/><rect x="600" y="300" width="196" height="700"/><rect x="800" y="300" width="196" height="700"/><rect x="1000" y="300" width="196" height="700"/><rect x="1200" y="300" width="196" height="700"/><rect x="1400" y="300" width="196" height="700"/>
</g>
<rect x="0" y="0" width="1600" height="300" fill="#161009"/>
<g fill="#120d07" stroke="#453421" stroke-width="4">
  <rect x="620" y="470" width="360" height="330"/>
  <rect x="590" y="440" width="420" height="40"/>
</g>
<path d="M700 800 q100 -170 200 0 z" fill="#e8933a" opacity="0.85"/>
<path d="M745 800 q55 -105 110 0 z" fill="#f7d488" opacity="0.9"/>
<circle cx="800" cy="740" r="430" fill="url(#g)"/>
<g fill="#1d1710" stroke="#3a2e21" stroke-width="3">
  <rect x="180" y="380" width="200" height="290" rx="4"/>
  <rect x="1220" y="380" width="200" height="290" rx="4"/>
</g>
<g opacity="0.4" fill="#070502"><ellipse cx="800" cy="1010" rx="920" ry="200"/></g>

</svg>
